<svg width="1122" height="1383" xmlns="http://www.w3.org/2000/svg" xmlns:xlink="http://www.w3.org/1999/xlink" xml:space="preserve" overflow="hidden"><defs><clipPath id="clip0"><rect x="788" y="349" width="1122" height="1383"/></clipPath></defs><g clip-path="url(#clip0)" transform="translate(-788 -349)"><path d="M391.326 779.997C175.937 780.73 0.734793 606.716 0.00217335 391.326-0.730447 175.936 173.284 0.73458 388.673 0.0019601 389.116 0.000456101 389.558-0.000295899 390-0.000295899L390 390Z" stroke="#000000" stroke-width="4.58333" stroke-miterlimit="8" fill-rule="evenodd" transform="matrix(-1 0 0 1 1873.5 664.5)"/><path d="M1093.5 1054.5C1093.5 839.109 1268.11 664.5 1483.5 664.5 1698.89 664.5 1873.5 839.109 1873.5 1054.5 1873.5 1269.89 1698.89 1444.5 1483.5 1444.5 1268.11 1444.5 1093.5 1269.89 1093.5 1054.5Z" stroke="#000000" stroke-width="73.3333" stroke-miterlimit="8" fill="none" fill-rule="evenodd"/><path d="M1247 386 1320.12 592.25" stroke="#000000" stroke-width="74.4792" stroke-linecap="round" stroke-miterlimit="8" fill="none" fill-rule="evenodd"/><path d="M1080 621 1132.5 687.487" stroke="#000000" stroke-width="74.4792" stroke-linecap="round" stroke-miterlimit="8" fill="none" fill-rule="evenodd"/><path d="M0 0 194.502 78.9975" stroke="#000000" stroke-width="74.4792" stroke-linecap="round" stroke-miterlimit="8" fill="none" fill-rule="evenodd" transform="matrix(1 0 0 -1 825 1317)"/><path d="M863 753 1027.56 834.486" stroke="#000000" stroke-width="74.4792" stroke-linecap="round" stroke-miterlimit="8" fill="none" fill-rule="evenodd"/><path d="M0 0 75.9375 180" stroke="#000000" stroke-width="74.4792" stroke-linecap="round" stroke-miterlimit="8" fill="none" fill-rule="evenodd" transform="matrix(-1 0 0 1 1283.94 1515)"/><path d="M863 1054 986.032 1054" stroke="#000000" stroke-width="74.4792" stroke-linecap="round" stroke-miterlimit="8" fill="none" fill-rule="evenodd"/><path d="M1483 1568 1483 1657.49" stroke="#000000" stroke-width="74.4792" stroke-linecap="round" stroke-miterlimit="8" fill="none" fill-rule="evenodd"/><path d="M0 0 52.5001 63.0068" stroke="#000000" stroke-width="74.4792" stroke-linecap="round" stroke-miterlimit="8" fill="none" fill-rule="evenodd" transform="matrix(-1 0 0 1 1132.5 1414)"/><path d="M1483 460 1483 547.221" stroke="#000000" stroke-width="74.4792" stroke-linecap="round" stroke-miterlimit="8" fill="none" fill-rule="evenodd"/></g></svg>